<svg xmlns="http://www.w3.org/2000/svg" width="30.78" height="60" viewBox="0 0 30.78 60"><g id="Layer_2" data-name="Layer 2"><g id="Layer_1-2" data-name="Layer 1"><path d="M14.9,34.26V44.42H10.29V31.76a21.58,21.58,0,0,0,9.42-6.27,14.3,14.3,0,0,0,3.15-9.27q0-5.8-3.17-9T10.76,4H10.2l-3.47,8.6c-.17,0-.36.05-.57.06l-1,0a5.6,5.6,0,0,1-3.86-1.21A4.26,4.26,0,0,1,0,8.09Q0,4.65,3.6,2.33A16.56,16.56,0,0,1,12.74,0Q21,0,25.87,4.3a14.39,14.39,0,0,1,4.91,11.41,15.64,15.64,0,0,1-3.87,10.52Q23,30.74,14.9,34.26ZM12.58,50.13a4.84,4.84,0,0,1,3.53,1.44,4.74,4.74,0,0,1,1.46,3.52,4.66,4.66,0,0,1-1.48,3.47A4.87,4.87,0,0,1,12.58,60a4.7,4.7,0,0,1-3.46-1.42,4.75,4.75,0,0,1-1.41-3.49,4.85,4.85,0,0,1,1.41-3.52A4.68,4.68,0,0,1,12.58,50.13Z"/></g></g></svg>