<svg xmlns="http://www.w3.org/2000/svg" viewBox="0 0 336.21 281.55"><defs><style>.cls-1{fill:#7e9af4;}.cls-2{fill:#ff6c3c;}</style></defs><g id="Layer_2" data-name="Layer 2"><g id="ICONS"><g id="Blob5"><path class="cls-1" d="M168.26.53c74.87,5,127,78,140,163s-90,119-131,118-160-35-175-120S47.26-7.47,168.26.53Z"/><path class="cls-2" d="M278.26,6.53c16.83-8.12,42.79,32.07,44,43,2,18,2,35-11,36s-22-13-34-29S249.26,20.53,278.26,6.53Z"/><path class="cls-1" d="M321.35,93c11.83-5,15.5,11.07,14.77,18.46s-5.83,18-13.29,17C312.51,127.11,295.14,104.22,321.35,93Z"/></g></g></g></svg>