<svg xmlns="http://www.w3.org/2000/svg" viewBox="0 0 1280.04 223.02"><defs><style>.cls-1{fill:#f6eef8;}.cls-2,.cls-3{fill:none;stroke-miterlimit:10;stroke-width:5px;}.cls-2{stroke:#ff6c3c;}.cls-3{stroke:#7e9af4;}</style></defs><g id="Layer_2" data-name="Layer 2"><g id="WAVES"><g id="header_with_bg" data-name="header with bg"><path class="cls-1" d="M1279,223c-110-1-95-85-191-85-93,0-84,84-192,85-113,1-151-86-241-87-94-1-108,86-212,87-123,1.18-124-86-223-87-101-1-97,86-220,87V87C123,86,119-1,220,0c99,1,100,88.18,223,87C547,86,561-1,655,0c90,1,128,88,241,87,108-1,99-85,192-85,96,0,81,84,191,85Z"/><path class="cls-2" d="M1,171c123-1,119-88,220-87,99,1,100,88.18,223,87,104-1,118-88,212-87,90,1,128,88,241,87,108-1,99-85,192-85,96,0,81,84,191,85"/><path class="cls-3" d="M0,128c123-1,119-88,220-87,99,1,100,88.18,223,87,104-1,118-88,212-87,90,1,128,88,241,87,108-1,99-85,192-85,96,0,81,84,191,85"/></g></g></g></svg>