<?xml version="1.0" encoding="utf-8"?>
<!-- Generator: Adobe Illustrator 26.0.3, SVG Export Plug-In . SVG Version: 6.00 Build 0)  -->
<svg version="1.1" id="Layer_1" xmlns="http://www.w3.org/2000/svg" xmlns:xlink="http://www.w3.org/1999/xlink" x="0px" y="0px"
	 viewBox="0 0 752.9 858.6" style="enable-background:new 0 0 752.9 858.6;" xml:space="preserve">
<style type="text/css">
	.st0{fill:#7E9AF4;}
</style>
<path d="M0,385.9c0.2-5.7-0.2-9.7,0.8-13.7c0.2-1.4,0.3-2.9,0.1-4.3c0-6.4,1-12.7,1.7-19c0.5-5.1,1.4-10.1,2.2-15.1
	c1.1-6.6,2.4-13.2,4-19.7c1.4-5.4,2.9-10.8,4.4-16.1c1.8-6.6,4.3-13,6.7-19.5c4.6-12.1,10-23.9,16.2-35.3
	c5.8-10.9,12.4-21.3,19.6-31.3c3-4.1,5.9-8.3,9.2-12.2c2.3-2.7,4.3-5.5,6.6-8.2c6-7.1,12.5-13.7,19.1-20.2
	c5.1-5.1,10.6-9.7,16.1-14.3c9.4-8,19.3-15.2,29.7-21.8c6.5-4.1,13.1-7.9,19.8-11.7c7.9-4.5,15.9-8.9,23.9-13.3
	c4-2.2,8.1-4.4,12.2-6.7c7.4-4.1,14.8-8.3,22.2-12.4c3.1-1.7,6.1-3.4,9.2-5.1c7.7-4.2,15.4-8.4,23.1-12.6
	c6.4-3.6,12.8-7.2,19.2-10.8c4-2.3,8.1-4.5,12.2-6.7l21.4-11.7c8.5-4.7,17-9.5,25.7-14c8.1-4.2,16.4-7.8,25-10.9
	c2.4-0.8,3.3-0.6,4.1,1.7c1.2,3.1,2.1,6.4,2.6,9.7c0.8,7.7,0.3,15.2-2.5,22.6c-2,5-4.8,9.8-8.2,14c-2.6,3.2-5.8,6-9.4,8.1
	c-5.2,3.2-10.7,6.2-16.2,9.2c-8.2,4.6-16.4,9.2-24.7,13.8c-6.7,3.7-13.5,7.4-20.1,11.1c-10.6,5.9-21.2,11.8-31.8,17.7
	c-4,2.3-8.2,4.4-12.2,6.7c-10.2,5.7-20.3,11.4-30.5,17.1c-4.3,2.4-8.7,4.7-13,7.1c-10.7,6-21.6,11.7-31.8,18.7
	c-9,6-17.6,12.7-25.8,19.9c-3.6,3.2-7.1,6.4-10.5,9.8c-5.8,5.7-11.1,11.9-16.4,18.1c-6.9,8.2-13.2,16.8-18.9,25.9
	c-7.7,12.2-14.3,25-19.7,38.3c-3.5,8.6-6.5,17.4-9.2,26.2c-2.1,6.7-3.5,13.6-5,20.4c-1.5,7.2-2.2,14.5-3.6,21.7
	c-0.1,0.3-0.1,0.7-0.1,1c-0.2,7.3-1.4,14.6-1.1,22c0.2,4.5,0.2,9,0,13.4c-0.2,6.1,0.5,12.1,1.2,18.1c2.3,20.6,7.1,40.9,14.4,60.3
	c2.1,5.7,4.5,11.3,7.2,16.8c2.5,5,4.7,10.1,7.5,15c2,3.3,3.6,6.8,5.6,10c5.4,8.8,11.3,17.4,17.7,25.6c5,6.4,10.4,12.5,16.1,18.3
	c3.1,3,6.2,6,9.2,9.2c3.3,3.3,6.8,6.3,10.4,9.2c8.5,7.1,17.4,13.5,26.7,19.4c10.9,6.9,22.4,13,34.3,18.1c6.4,2.8,13,5.3,19.6,7.6
	c8.7,3.1,17.7,5.6,26.7,7.4c6.4,1.2,12.8,2.5,19.2,3.6c3,0.5,6,0.8,9,1c7.2,0.4,14.3,1.6,21.5,1.2c3.7-0.2,7.4,0,11,0
	c7.5,0,14.9-1,22.4-1.7c8.6-0.9,17-2.3,25.4-4.2c8-1.7,15.8-3.9,23.5-6.5c9.4-3.2,18.6-6.9,27.6-11c5.2-2.4,10.2-5.3,15.4-7.8
	c4.2-2.3,8.8-3.9,13.5-4.9c3.4-0.6,6.7-0.3,10-0.5c5.3-0.2,10.5,0.8,15.4,2.8c8.4,3.2,15.6,8.9,20.7,16.3c0.6,0.9,1.1,2,1.5,3
	c0.3,0.6,0,1.3-0.5,1.7c-0.9,0.6-1.9,1.1-2.9,1.7l-18.9,10.4c-9.2,5.1-18.4,10.4-27.8,15.2c-15,7.6-30.6,13.8-46.7,18.6
	c-10.8,3.3-21.8,6-33,8c-5.3,0.9-10.7,1.8-16.1,2.4c-8.1,0.9-16.2,1.6-24.3,1.9c-4.8,0.2-9.5,0.6-14.3,0.8c-4.2,0.1-8.2-1-12.4-1
	c-4,0.2-8-0.1-11.9-0.7c-3.4-0.6-7-0.6-10.5-1.1c-7.2-1-14.5-2.1-21.7-3.5c-15-3-29.8-7.2-44.2-12.5c-7-2.6-14-5.4-20.8-8.5
	c-16.6-7.5-32.5-16.6-47.4-27.1c-7.9-5.6-15.6-11.6-23-17.9c-9.2-8.2-18-16.8-26.3-25.8c-5.4-5.6-10.4-11.7-15-18
	c-3.7-5.2-7.7-10.2-11.2-15.6c-5-7.6-9.7-15.4-14.1-23.4c-10.5-19.2-18.8-39.6-24.7-60.7c-2.5-8.7-4.5-17.6-6.1-26.5
	c-1-5.5-1.9-11-2.6-16.5c-0.5-4.1-0.3-8.3-1.5-12.3c-0.1-0.3-0.1-0.7-0.1-1C1.5,400.1-0.3,392.1,0,385.9z"/>
<path d="M296.9,543.4h6.7c8.4-0.2,16.9-1.2,25.1-3c9.5-2,18.9-4.8,27.9-8.6c6.4-2.6,12.6-5.5,18.6-8.8c10.7-6,22.3-10.5,34.3-13.1
	c6.4-1.4,12.8-2.5,19.3-3.2c5.9-0.5,11.8-0.8,17.7-0.7c4.6-0.1,9.2,1,13.8,1.5c4.4,0.5,8.8,1.3,13.2,2.4c10.1,2.4,19.9,6,29.1,10.8
	c8.9,4.6,17.3,10.2,25,16.7c4.4,3.7,8.6,7.7,12.5,11.9c6.5,7.1,12.1,14.8,16.9,23.2c1,1.8,0.9,2.4-0.8,3.5
	c-3.8,2.4-7.6,4.8-11.3,7.2l-20.2,12.9c-0.3,0.2-0.6,0.3-0.8,0.5c-3.7,1.9-4,2.7-6.6-1.6c-4.6-7.5-10.3-14.3-16.9-20.1
	c-8.4-7.2-18-12.8-28.3-16.7c-5.7-2.2-11.5-3.8-17.5-4.7c-6.1-1.1-12.4-1.5-18.6-1.2c-13.7,0.9-27.1,4.6-39.3,11.1
	c-3.1,1.7-6.1,3.5-9.3,5c-11.8,5.7-24.1,10.3-36.7,13.8c-8.5,2.2-17,4-25.7,5.3c-4.7,0.8-9.5,0.9-14.3,1.4
	c-5.8,0.6-11.5,0.6-17.2,0.7c-7,0-14-0.9-20.9-1.7c-4.8-0.5-9.5-1.2-14.2-2.1c-13.4-2.5-26.4-6.3-39-11.5
	c-12-4.9-23.5-10.9-34.4-17.9c-7.2-4.7-14.2-9.8-20.8-15.3c-7.5-6.1-14.1-13-20.7-20c-4.2-4.6-8.1-9.4-11.7-14.5
	c-4-5.2-7.6-10.6-10.9-16.3c-3.7-6.4-7.1-12.8-10.3-19.4c-3.7-8.1-7-16.5-9.7-25c-2.7-8.3-4.8-16.9-6.3-25.5
	c-1.1-6.5-1.8-13.2-2.4-19.9c-0.6-7.6-0.8-15.3-0.6-23c0.1-5.4,0.9-10.8,1.5-16.1c0.3-2.7,0.9-5.4,1.1-8c0.2-4.7,1.5-9.1,2.4-13.6
	c1.3-5.9,2.9-11.8,4.8-17.5c6.1-18.9,14.9-36.8,26.1-53.2c4.5-6.4,9.2-12.6,14.3-18.5c3.6-4.3,7.6-8.2,11.5-12.2
	c6.6-6.8,14-12.6,21.5-18.2c8.6-6.3,17.7-12,27.2-17c10-5.4,19.8-11.1,29.7-16.6c7.1-4,14.3-7.8,21.4-11.8
	c9.9-5.5,19.8-11.1,29.7-16.6c4.2-2.3,8.4-4.6,12.6-6.9c7.4-4.1,14.8-8.3,22.1-12.4c3.5-2,7-3.9,10.5-5.8
	c10.1-5.5,20.2-11,30.2-16.7c4.5-2.7,8.9-5.8,12.9-9.2c6.2-5.2,11.7-11.3,16.2-18.1c7.2-10.6,12-22.6,14.1-35.2
	c0.7-4.1,1.4-8.2,1.8-12.3c0.1-3.3,0-6.7-0.5-10c-0.5-4.8-1.3-9.5-2.1-14.2c-0.5-3-1.8-5.8-2.5-8.7c-0.5-1.8-0.3-2.1,1.6-2.8
	c0.9-0.3,1.8-0.6,2.8-0.7c5.6-1,11.3-2.3,17-2.7c4.6-0.3,9.1-1.4,13.7-1.3c2.2,0.1,4.4-0.6,6.6-0.8c3.2-0.2,3.7,0,4.4,3
	c0.9,3.7,1.7,7.4,2.4,11.2s1.2,7.9,1.8,11.8c0.1,1.1,0.2,2.2,0.2,3.4c0,3.8,0.1,7.7,0,11.5c-0.2,11.3-1.9,22.6-5,33.5
	c-2.4,8.6-5.6,17-9.6,25c-3.8,7.6-8.3,14.8-13.5,21.4c-3.1,4.1-6.4,8-9.9,11.7c-7.7,7.9-16.3,14.8-25.7,20.7
	c-4.3,2.8-8.8,5.2-13.3,7.7c-13,7.2-25.9,14.5-38.9,21.7c-8.4,4.6-16.9,9-25.2,13.8c-9.1,5.3-18.6,9.9-27.6,15.5
	c-4.2,2.6-8.7,4.7-13,7.1c-8.4,4.7-16.8,9.3-25.1,14c-6.4,3.6-12.8,7.2-19.3,10.6c-15.3,8.3-29.3,18.9-41.5,31.4
	c-7.9,8.4-14.8,17.6-20.8,27.4c-5.2,8.6-9.6,17.7-13.1,27.2c-2.4,6.6-4.4,13.3-5.9,20.2c-1.5,6.7-2.1,13.5-3.4,20.2
	c-0.2,1.3-0.2,2.6-0.2,3.8c0,6.4,0,12.8-0.1,19.2c-0.1,5.3,0.8,10.5,1.6,15.7c0.6,3.6,1.3,7.2,2,10.8c1.5,7.3,3.6,14.5,6.4,21.5
	c4.5,11.8,10.4,23,17.5,33.5c16.7,24.4,39.9,43.7,67,55.6c11.7,5.2,23.9,8.9,36.5,11.2C277.7,543.1,287.3,543.8,296.9,543.4z"/>
<path class="st0" d="M172,388c0.8-39.6,15.9-72.6,46-98.4c13.9-11.8,30.1-20.7,47.6-26.1c11.6-3.7,23.5-6.1,35.6-7.1
	c8-0.8,16-0.4,23.9,1.3c1.1,0.3,2.2,0.6,3.2,0.9c5.4,1.8,7.6,5.5,6.8,11.1c-0.7,4.4-1.6,8.8-2.4,13.2c-0.4,2.2-0.7,4.4-1,6.6
	c-1.3,9.7-9.5,17.1-19.3,17.5c-8.2,0.3-16.3,1.5-24.1,3.5c-22.9,5.9-41.3,18.3-52.6,39.3c-14,26.1-13.8,52.5,2.1,77.9
	c6.6,10.6,15.9,18.8,26.8,24.9c21.5,12,43.7,13.2,66.5,4.2c13.6-5.4,25.2-13.8,35.6-23.9c1.1-1.1,2.2-2.3,3.4-3.4
	c5.6-4.8,13.7-5,19.5-0.6c1.1,0.9,2.2,1.8,3.2,2.9l16.9,16.3c0.7,0.6,1.4,1.3,2,2.1c2.5,2.8,2.9,6.9,1.1,10.2
	c-0.8,1.4-1.7,2.8-2.7,4c-5.8,7.5-12.5,14.2-20,19.9c-18.9,15-40.8,25.6-64.3,30.9c-26.7,6.1-52.8,3.9-77.9-7.1
	c-20.2-8.9-36.6-22.7-49.6-40.5c-12-16.5-20.2-35.4-24-55.5C172.8,404.3,172,396.2,172,388z"/>
<path d="M470,235.4h9.6c3.2,0,6.4-0.2,9.5,0.7c1.1,0.2,2.2,0.3,3.3,0.2c6.2,0.1,12.4,1.1,18.5,1.7c7.1,0.7,14.2,2,21.2,3.3
	c6.3,1.1,12.5,2.6,18.7,4.2c9.8,2.5,19.3,5.6,28.8,8.9c7.7,2.7,15.2,5.9,22.7,9.1c5,2.1,9.9,4.5,14.7,6.9c8.4,4.2,16.6,9,24.6,13.9
	c12.3,7.5,24.1,15.6,35.5,24.4c4.9,3.8,9.5,8,14.4,11.9c3.3,2.7,6.5,5.7,9.5,8.7c6.4,6.2,12.5,12.8,18.1,19.8
	c5.1,6.3,10,12.8,14.7,19.5c1.5,2.1,1.5,3.7,0.3,6.1c-6.4,12.9-12.5,25.9-18.8,38.8c-0.4,0.9-0.8,1.7-1.3,2.5
	c-0.2,0.4-0.8,0.6-1.2,0.4l0,0c-0.1-0.1-0.2-0.2-0.3-0.3c-0.7-0.9-1.4-1.8-2-2.7c-5.8-9-12.2-17.5-19.2-25.7
	c-6.7-8-13.7-15.6-21.2-22.8c-4.2-3.9-8.7-7.5-13-11.3c-10.1-9.1-21.3-16.7-32.7-24.2c-5.3-3.5-10.8-6.8-16.5-9.7
	c-3.5-1.8-7-3.9-10.6-5.6c-10.7-5.3-21.7-10-33-14.1c-11.4-4.2-23-7.6-34.9-10.2c-6.2-1.4-12.4-3-18.8-3.4c-2.4-0.2-4.7-0.6-7.1-1.2
	c-1.9-0.5-3.8-0.4-5.7-0.7c-6.5-1.2-13.1-0.4-19.5-1.7c-1.1-0.1-2.2-0.2-3.4-0.1c-4.1,0-8.3,0-12.5,0c-3.4,0-6.7-0.2-10,0.7
	c-1.3,0.2-2.6,0.2-3.8,0.2c-5.1,0.4-10.2,0.5-15.2,1.2c-7.7,1.1-15.4,2.4-23,4c-5.8,1.3-10.9-0.1-15.6-2.8c-9-5.1-13-13.4-11.7-23.4
	c1.1-8.8,6.2-15.3,14.7-18.6c4.9-2,10.2-2.5,15.4-3.5c6.1-1.1,12.2-1.9,18.4-2.9l0,0c5.3,0.2,10.5-0.8,15.7-1.2
	C455,235.6,462.5,235.4,470,235.4z"/>
<path d="M630.3,61c-0.6,5-1.3,10.1-1.9,15.2c-0.4,3-0.6,6-1.1,9c-1.1,7.4-2.6,14.8-4.2,22.1c-3.1,13.5-7,26.9-11.8,39.9
	c-1.9,5.4-4.3,10.6-6.4,16c-2.4,6.1-3.1,5.6,3.4,8c11,4,21.8,8.2,32.5,12.9c10.3,4.4,20.5,9.1,30.3,14.3c7.5,4,14.7,8.3,22.2,12.4
	c11,6.2,21.7,12.9,32,20.2c7.1,4.9,14,10.1,20.9,15.2c2.4,1.8,4.3,3.9,3.8,7.2c1.2,4,0.5,8.3,1.7,12.3l0.1,0.5
	c-0.1,5.1,0.9,10.2,1,15.3c0.1,8.3,0,16.6,0,25c0,1.1-0.1,2.2-0.3,3.3c-0.1,0.4-0.4,0.7-0.8,0.6c0,0,0,0,0,0l0,0
	c-0.1,0-0.2,0-0.2-0.1c-0.7-0.4-1.3-0.9-1.9-1.4c-6.8-6.3-13.8-12.3-20.9-18.2c-11.9-9.9-24.4-19.1-37.4-27.5
	c-8.3-5.5-16.6-10.8-25.3-15.5c-6.9-3.7-13.6-7.6-20.6-11.1c-9-4.5-18.2-8.6-27.4-12.6c-13.7-5.9-27.7-10.9-41.8-15.4
	c-7.1-2.3-14.4-4.2-21.6-6.2c-5.7-1.6-11.4-3.2-17-4.9c-1.2-0.4-1.5-1-0.9-2.1c2.8-5,5.6-10,8.5-15c6-10.3,11.6-21,16.5-31.9
	c3.8-8.6,7.2-17.4,10.2-26.3c3.3-9.8,6-19.8,8-30c1.4-7,2.5-13.9,3.5-20.9c1.8-12.4,1.8-24.8,1.8-37.3v-1c0.1-3.7,0.6-4.1,3.8-2.5
	c7.6,3.7,15,7.9,22.2,12.3c4.9,3,9.7,6.2,14.5,9.4c0.7,0.4,1.3,0.9,2,1.3c1.9,1.1,2.8,3.2,2.5,5.3c-0.1,0.8-0.1,1.6,0,2.4L630.3,61z
	"/>
<path d="M441.6,373c-4.9,0-8.3-0.1-11.6,0c-4.5,0.1-8.9-1.3-12.5-4c-6.7-4.7-10.3-11.3-10.3-19.5c0.1-5.7,2.3-11.1,6.2-15.2
	c3.9-4.3,9.2-7,14.9-7.7c8.3-1.1,16.6-0.4,24.9-0.6c4.5,1.2,9.2,0.6,13.8,0.9c4.4,0.4,8.9,0.8,13.3,1.5c3,0.5,6.1,0,9,1.2
	c10.7,1,21,3.5,31.4,5.9c9.5,2.2,18.8,4.9,28,8.1c18.1,6.2,35.7,14,52.5,23.3c14.4,7.9,28.2,16.9,41.2,27
	c7.6,5.8,14.8,12.1,21.9,18.5c8.1,7.3,15.6,15.1,23.3,22.8c2,2.1,3.9,4.2,5.6,6.5c1.3,1.6,1.3,2.8,0.1,4.3
	c-3.1,3.9-6.2,7.7-9.4,11.5c-1.7,2.1-3.6,4-5.2,6.2c-2.3,3-4.9,5.9-7.7,8.6c-1.8,2-3.5,4.1-5.4,6.1c-1,1.1-1.8,1.1-2.9,0.1
	c-0.8-0.8-1.5-1.6-2.2-2.5c-0.4-0.5-0.7-1.1-1.1-1.6c-5.4-5.7-10.4-11.7-16.2-17c-8.2-7.6-16.3-15.2-25.3-22
	c-6.9-5.2-13.7-10.4-21-15c-6.3-4.1-12.7-8-19.3-11.6c-5.2-2.8-10.4-5.6-15.7-8.1c-13-6.1-26.5-11.2-40.2-15.4
	c-10.3-3.3-20.9-5.8-31.6-7.6c-4.7-0.7-9.4-1.8-14.1-2.5c-3.5-0.5-7-0.9-10.5-1.1C457.3,373.8,448.8,372.2,441.6,373z"/>
<path d="M458.2,418c4-0.4,8,0.7,11.8,1.5c15,3,29.8,7,44.2,12.1c9.8,3.4,19.4,7.3,28.8,11.8c5.9,2.8,11.7,5.8,17.5,8.8
	c13.9,7.3,27.1,15.7,39.6,25.1c5.5,4.1,11,8.2,16.2,12.6c6.3,5.2,12.2,10.7,17.9,16.6c1.2,1.2,1.2,1.6,0,2.8
	c-3.4,3.2-6.5,6.6-10.2,9.4c-3.4,2.6-6.5,5.7-9.7,8.5c-4.4,3.7-8.8,7.4-13.2,11.1c-0.7,0.7-1.8,0.7-2.5,0l-0.1-0.1
	c-3.1-2.8-6.2-5.5-9.3-8.3c-5.3-4.8-11-9.2-16.7-13.5c-9.1-7-18.7-13.4-28.6-19.1c-8.6-4.9-17.4-9.5-26.4-13.5
	c-9-3.9-18-7.5-27.2-10.5c-10.3-3.3-20.8-6-31.4-8.1c-1.6-0.3-3.1-0.6-4.7-1c-9.8-2-16.6-7.7-18.8-17.5c-3-13.4,3.9-23.9,15.7-28
	C453.5,417.9,455.9,418.1,458.2,418z"/>
<path d="M415.2,187.3c2.5-3.1,5.5-4.6,8.1-6.7c3.3-2.7,6.8-5.3,9.9-8.3c2.3-2.2,4.9-4.1,7.1-6.4c15.1-15.2,27.5-32.9,36.5-52.4
	c3.6-8,6.7-16.2,9.3-24.6c2.6-7.9,4-16.1,5.6-24.2c2.6-14,2.1-28,1.7-42c-0.2-6.1-1-12.1-2.3-18c-0.1-0.6-0.2-1.2-0.3-1.9
	c-0.1-0.8,0.4-1.5,1.2-1.7c0,0,0,0,0,0l0,0c0.1,0,0.1,0,0.2,0c0.6-0.1,1.3-0.1,1.9,0c7.4,1.2,14.8,2.3,22.1,3.8
	c6.5,1.3,13,3.1,19.5,4.7c2.5,0.6,2.7,1,2.9,3.6c1.3,11.8,1.2,23.6,0.8,35.4c-0.1,4.8-0.9,9.5-1.5,14.2c-0.3,2.7-0.8,5.4-1.1,8
	c-0.5,4.6-1.3,9.2-2.4,13.6c-3.1,14.4-7.6,28.4-13.4,41.9c-5.4,12.5-11.8,24.5-19.2,35.9c-3.8,5.9-8,11.6-12.5,17
	c-2.2,2.7-4.5,5.4-6.9,8c-1.2,1.5-3.3,2.1-5.2,1.4c-0.6-0.2-1.2-0.4-1.9-0.4c-5.6,0.2-11.1-1-16.7-1h-38.4L415.2,187.3z"/>
<path d="M611.7,820.4c1.7-0.8,2.2-2,2.9-3c13.9-19.3,27.8-38.7,41.8-58c0.8-1.2,1.8-2.3,2.7-3.4c0.3-0.4,0.8-0.5,1.3-0.3
	c0.5,0.1,0.8,0.6,0.7,1.1c0.1,1.1,0.1,2.2,0.1,3.4v95c-0.1,1.8-0.5,2.2-2.4,2.2c-4.4,0.1-8.8,0.1-13.3,0c-1.9,0-2.3-0.4-2.3-2.4
	c-0.1-2.9,0-5.9,0-8.8v-37.1c0-1.1-0.1-2.2-0.2-3.3c0-0.4-0.2-0.6-0.7-0.5h-0.4c-0.7,0.9-1.4,1.7-2.1,2.6L615,843.4
	c-0.3,0.4-0.5,0.8-0.8,1.2c-2.5,3.6-2.8,3.7-5.3,0.2c-8.2-11.2-16.2-22.6-24.4-33.8c-1.4-1.9-2.1-4.6-4.9-5.4
	c-1.1,2.3-0.5,4.7-0.5,7c-0.1,13.1,0,26.2,0,39.2v2.9c-0.1,2.4-0.3,2.7-2.9,2.7h-11.4c-0.9,0.1-1.7-0.5-1.8-1.4c0-0.1,0-0.2,0-0.3
	v-96c0-1.1,0.1-2.2,0.2-3.3c0.1-0.5,0.5-0.9,1-0.8c0.2,0,0.4,0.1,0.5,0.3c0.6,0.6,1.1,1.2,1.6,1.8l39.8,55.3
	C607.9,815.3,609.7,817.8,611.7,820.4z"/>
<path d="M88.9,777c-6.5-3-13.6-4.4-20.7-3.9c-15.1,0.7-28.8,11.7-32.3,26.4c-5.5,23.3,12.7,43,33.1,43c7.4-0.1,14.6-1.9,21.2-5.2
	c1.5-0.7,2-0.6,2.6,0.8c1.5,3.2,3,6.4,4.4,9.6c0.7,1.4,0.5,1.9-0.9,2.7c-1.6,1-3.4,1.9-5.1,2.6c-11,4.3-22.3,5.7-33.9,3.2
	c-16.4-3.5-28.1-13-33.7-28.9c-6.8-19.1-4-37,9.9-52.3c10-11,23-15.8,37.8-15.4c5.9,0,11.8,1,17.4,3.1c0.9,0.3,1.8,0.6,2.7,1
	c4.3,2,4.3,2,1.9,6.2c-1.2,2.1-2.4,4.2-3.6,6.2C89.5,776.4,89.2,776.7,88.9,777z"/>
<path d="M324.2,855.6c-0.5-3.7-0.6-49.1-0.1-54.1c1.5-0.9,3.1-0.5,4.6-0.5c5.7,0,5-0.6,5.4,5c0.1,1.6,0.2,3.2,0.4,4.8
	c0.1,0.4,0.3,0.8,0.7,1.1c0.5,0.3,0.9-0.1,1.1-0.5c0.6-0.9,1.2-1.8,1.9-2.8c6.8-10.1,18.2-10.4,25.4-8c4.2,1.3,7.6,4.3,9.4,8.3
	c0.5,1,0.9,2,1.3,2.9c1.2,0.2,1.5-0.5,2-1.1c0.7-1,1.4-2.1,2.2-3.1c5.9-7.5,16-10.3,24.9-6.9c5.4,1.8,9.4,6.5,10.3,12.1
	c0.3,1.6,0.5,3.1,0.5,4.7v34.9c0,0.9-0.1,1.8-0.2,2.9c-3.3,0.8-6.5,0.3-9.7,0.3c-0.8,0-1.1-0.6-1.1-1.2c-0.1-1.2-0.1-2.5-0.1-3.7
	v-27.3c0.2-2.9-0.6-5.8-2.3-8.2c-1.1-1.6-2.6-2.7-4.4-3.3c-7.2-2.5-15.1,0.7-18.6,7.4c-1.8,3.4-2.7,7.2-2.7,11v24.5
	c0,0.9-0.4,1.6-1.3,1.6h-9c-1.2,0-1.7-0.7-1.7-1.8s0-2.2,0-3.4v-28.8c0-6.2-3.9-11.7-12.4-11.2c-6.9,0.3-12.8,5-14.7,11.7
	c-0.6,2.3-0.9,4.7-0.9,7.1v24.4c0.1,0.8-0.5,1.4-1.2,1.5h-0.2C330.5,855.8,327.3,856.2,324.2,855.6z"/>
<path d="M727.7,177.2c-1.5,0.1-2.9-0.3-4-1.2c-10.5-6.8-21.5-12.6-32.5-18.4c-8.6-4.5-17.5-8.4-26.3-12.5c-0.6-0.3-1.2-0.5-1.7-0.8
	c-2-1-2.8-1.2-1.8-4.4c3.3-10.8,6-21.8,8-32.9c0.7-4.1,1.4-8.2,2.1-12.2c0.2-1.4,1.3-1.8,2.3-0.9c0.6,0.5,1.2,1.1,1.7,1.7
	c4.5,5.1,9.2,10.1,13.3,15.7c4,5.4,8.1,10.7,12,16.1c4.4,6.1,8.2,12.5,12.1,19c5,8.4,9.2,17.2,13.5,25.9
	C727,173.8,728,175.3,727.7,177.2L727.7,177.2z"/>
<path d="M688.1,837c1.6,3.7,4.9,6.4,8.8,7.3c5.5,1.5,11.4,0.5,16-2.8c2.2-1.5,2.2-1.4,4,0.2s3.7,3.5,5.5,5.3c2.5,2.4,2.4,3-0.5,5.1
	c-3.1,2.3-6.6,4-10.3,5c-10,2.8-19.4,1.6-27.8-4.6c-18.1-13.3-15.7-40.7,4.4-51c13.3-6.8,30.9-3.4,39.1,13.8c2.7,5.7,2.2,5-2.9,7
	c-11.7,4.7-23.5,9.3-35.2,13.9C688.8,836.5,688.5,836.7,688.1,837z M685.4,825.5c-0.2,1.3,0.5,1.9,1.6,1.4c7.7-3.1,15.4-6.3,23-9.5
	c0.3-0.1,0.6-0.3,0.8-0.5c0.5-0.3,0.7-0.9,0.4-1.4c0,0,0,0,0,0l0,0c0-0.1-0.1-0.2-0.2-0.2c-0.6-0.6-1.2-1.1-1.8-1.5
	C699.6,807.8,687.2,814.9,685.4,825.5L685.4,825.5z"/>
<path d="M253.4,828.6c-0.5-15.2,12.3-29.1,29.3-29.2c15-0.1,29,11.1,29.2,28.7c0.4,15.8-12.2,29-28.1,29.3c0,0,0,0,0,0h-1
	C264.2,857.4,253,843,253.4,828.6z M265.1,828c-0.3,9.7,7.3,17.8,17,18.2c0,0,0,0,0,0h0.2c9.8,0.5,18.2-7.1,18.6-16.9
	c0.5-9.8-7.1-18.2-16.9-18.6l0,0h-0.8H283C273.3,810.5,265.2,818.3,265.1,828z"/>
<path d="M540.1,841.5l8,7.7c-0.2,0.4-0.4,0.7-0.6,1.1c-12.2,10.5-31.4,9.3-42.2-2.5c-10.7-11.7-9.9-29.9,1.9-40.6
	c1.7-1.6,3.7-3,5.7-4.1c15.3-8.5,33.4-1.7,39.3,14.8c0.7,1.8,0.6,2-1.3,2.7l-34.8,13.8l-4,1.6c-0.5,0.2-0.8,0.7-0.7,1.2l0,0
	c0,0.1,0.1,0.2,0.2,0.3c1,2,2.5,3.7,4.4,5c6.7,4.8,13.7,4.7,20.8,1.1C537.9,842.9,539.1,842.2,540.1,841.5z M538.3,817
	c-1.6-3.1-2.8-4.2-5.7-5.3c-11.3-4.2-22.6,4.3-23.6,15.3c-0.1,1.5,0.5,2,2,1.4c7.2-2.9,14.5-5.9,21.7-8.9
	C534.6,818.8,536.7,818.3,538.3,817z"/>
<path d="M146.6,801c3.4-0.4,6.9-0.5,10.4-0.2c0.8,0,1,0.7,1.1,1.3s0,1.6,0,2.4v51.1c0.1,0.8-0.5,1.5-1.3,1.6h-0.1
	c-0.6,0.1-1.3,0.1-1.9,0.1c-1.9-0.1-4.1,0.7-5.6-0.4s-0.7-3.6-1-5.4s-0.4-3.8-0.7-5.7c-0.1-0.4-0.2-1-0.5-1.2
	c-0.8-0.5-1.1,0.3-1.4,0.8c-1.5,2.3-3.2,4.4-5.2,6.3c-6.5,6-17.7,7.7-25.6,3.6c-4.4-2.2-7.5-6.3-8.3-11.1c-0.3-1.6-0.4-3.2-0.4-4.8
	v-36.7c0-0.8,0.6-1.4,1.3-1.4c0,0,0,0,0,0h0.2c3.1,0,6.2-0.4,9.5,0.4v33c-0.3,8.2,5.8,12.1,12.8,11.7c9.2-0.4,16.4-7.9,16.4-17.1
	c0.2-7.8,0.1-15.5,0.1-23.2C146.5,804.3,146.6,802.7,146.6,801z"/>
<path d="M481.5,813.2c-1.9-0.7-3.7-1.5-5.7-2.1c-2.1-0.7-4.5-0.7-6.6,0c-3.5,1.1-4.2,4.7-2.4,7.3c0.7,1.1,1.7,1.9,2.9,2.5
	c2.2,1.2,4.6,2.2,6.9,3.4c2.2,1,4.3,2.1,6.3,3.4c5.1,3.4,7.5,8.1,6.8,14.3s-3.9,10.8-9.6,13.3c-5.5,2.5-11.2,2.2-16.9,0.8
	c-3.5-0.7-6.7-2.3-9.3-4.7c-0.8-0.8-1.1-1.5-0.3-2.5c1.9-2.2,3.7-4.4,5.3-6.3c1.5-0.6,2.1,0.3,3,0.8c2.1,1.1,4.4,1.9,6.7,2.4
	c2.5,0.6,5.2,0.1,7.3-1.4c2.3-1.3,3-4.2,1.7-6.5c-0.3-0.6-0.8-1.1-1.4-1.5c-1.4-1-3-1.9-4.5-2.6c-1.6-0.8-3.2-1.4-4.9-2.1
	c-1.3-0.6-2.6-1.2-3.9-1.8c-6.8-3.9-9.8-9.9-8.2-18.2c0.8-4.3,3.6-8,7.6-9.9c7.1-3.8,17.7-2.6,23.9,2.7c0.8,0.7,1.2,1.5,0.5,2.5
	c-1.1,1.6-2.3,3.1-3.5,4.6C482.8,812.2,482.4,813,481.5,813.2z"/>
<path d="M187,857.2c-5.7-0.2-11.1-1.4-15.7-5c-2-1.6-2-1.9-0.5-3.8c0.5-0.6,1-1.3,1.5-1.9c1.1-1.3,2.1-3,3.6-3.8
	c1.7-0.9,3,1.3,4.7,1.7s3.3,1.1,5,1.5c2.4,0.5,4.9,0,6.9-1.4c3.1-2,3.4-5.7,0.5-8c-1.4-1-2.9-1.9-4.5-2.6c-2-1-4.1-1.7-6.2-2.6
	c-3.3-1.3-6.1-3.5-8.3-6.2c-5.7-7.6-3.1-19.3,5.5-23.4c8.3-3.9,16.2-2.5,23.5,2.8c1.2,0.9,1.3,1.5,0.4,2.8c-1,1.4-2.1,2.8-3.1,4.2
	c-1.3,1.9-1.8,2-3.9,1c-1.6-0.8-3.3-1.3-5-1.7c-1.9-0.4-3.9-0.2-5.6,0.5c-2.4,0.8-3.6,3.5-2.8,5.8c0.2,0.5,0.4,0.9,0.7,1.3
	c1.1,1.4,2.5,2.5,4.1,3.3c2,1,4.1,1.9,6.1,2.8c2,0.9,4,2,5.9,3.2c5.1,3.3,7.6,8.1,6.9,14.3c-0.4,5.9-4.1,11.1-9.5,13.4
	C193.7,856.8,190.3,857.4,187,857.2z"/>
<path d="M234.1,856.4c-3.2,0.3-6.5,0.4-9.7,0.2c-0.7,0-1.2-0.6-1.2-1.2v0l0,0c-0.1-1.3-0.1-2.6-0.1-3.8v-35c0-1.3,0-2.6-0.1-3.9
	c0-0.8-0.7-1.5-1.5-1.5h-0.1c-2.3-0.1-4.5-0.1-6.8-0.1c-0.8,0.1-1.4-0.5-1.5-1.2c0,0,0,0,0,0l0,0c0-0.1,0-0.2,0-0.2v-2.5
	c0.1-6.6-0.9-5.6,5.5-5.7c1.1,0,2.3-0.1,3.4-0.2c0.5,0,0.9-0.4,0.9-0.9c0.1-1.5,0.2-3.1,0.1-4.6L223,784c0.1-2.3,0-3.9,0.2-5.7
	c0-0.7,0.6-1.2,1.3-1.2c1-0.1,1.9-0.1,2.9-0.1c8.5,0.1,7.1-1.2,7.2,7c0.1,5.6,0,11.2,0,16.5c1.1,1.3,2.3,1,3.4,1h8.7
	c1.5,0,1.8,0.3,1.9,2v6.3c0.1,0.9-0.5,1.6-1.4,1.7c-0.1,0-0.2,0-0.4,0c-3.6,0-7.1,0-10.7,0.1c-1.4,0-1.9,0.5-1.9,2.1L234.1,856.4
	L234.1,856.4z"/>
<path d="M441.1,828.6v22.5c-0.2,1.1-0.2,2.2-0.2,3.3c0.1,0.8-0.5,1.5-1.3,1.5l0,0c-0.1,0.1-0.1,0.3-0.1,0.5h-0.5
	c0,0-9.1,1.5-9.2-9.2c-0.1-14,0-28.1,0-42.2c0-4.3,0.1-4.2,4.2-4.2c1.9,0,3.8,0,5.8,0.1c0.6,0,1.2,0.5,0.4,1.1v0.1
	c0.6,1,0.9,2.2,1,3.3L441.1,828.6z"/>
<path d="M436.2,772.4c4,0.5,6.8,4.1,6.5,8.1c-0.4,3.9-3.9,6.8-7.8,6.4c0,0,0,0,0,0h-0.2c-3.8-0.5-6.6-3.9-6.3-7.8
	C428.7,775.2,432.2,772.2,436.2,772.4z"/>
<path d="M727.8,177.1l0.4,0.5c-0.1,0-0.2,0-0.3-0.1C727.8,177.4,727.8,177.3,727.8,177.1L727.8,177.1z"/>
</svg>
