<svg xmlns="http://www.w3.org/2000/svg" viewBox="0 0 752.89 858.6"><g id="Layer_2" data-name="Layer 2"><g id="Layer_1-2" data-name="Layer 1"><g id="Layer_2-2" data-name="Layer 2"><g id="Layer_1-2-2" data-name="Layer 1-2"><path d="M0,385.9c.19-5.73-.22-9.73.77-13.68a16.8,16.8,0,0,0,.13-4.31c0-6.39,1-12.69,1.68-19,.52-5.09,1.38-10.1,2.21-15.12,1.09-6.61,2.37-13.17,4-19.66,1.38-5.4,2.94-10.76,4.4-16.14,1.8-6.65,4.33-13,6.7-19.45a291.69,291.69,0,0,1,16.17-35.28A263.58,263.58,0,0,1,55.67,212c3-4.13,5.88-8.34,9.22-12.22,2.28-2.66,4.35-5.51,6.61-8.18,6-7.08,12.53-13.66,19.11-20.19,5.11-5.07,10.59-9.7,16.08-14.34a261.65,261.65,0,0,1,29.69-21.79c6.49-4.07,13.12-7.92,19.77-11.73,7.9-4.52,15.88-8.9,23.85-13.32,4-2.24,8.14-4.41,12.19-6.66q11.1-6.18,22.16-12.4c3.07-1.72,6.13-3.44,9.21-5.13,7.71-4.22,15.45-8.38,23.14-12.64,6.42-3.56,12.79-7.23,19.19-10.83,4-2.26,8.11-4.47,12.18-6.7L299.5,44.16c8.55-4.68,17-9.55,25.69-14a198,198,0,0,1,25-10.9c2.42-.84,3.3-.58,4.09,1.74a44,44,0,0,1,2.59,9.68c.76,7.67.33,15.25-2.55,22.62a54.29,54.29,0,0,1-8.17,14,33.73,33.73,0,0,1-9.41,8.07c-5.25,3.2-10.71,6.2-16.18,9.2q-12.33,6.9-24.69,13.76c-6.71,3.72-13.45,7.37-20.15,11.1-10.61,5.89-21.2,11.84-31.8,17.73-4,2.26-8.16,4.41-12.21,6.66-10.18,5.68-20.33,11.41-30.52,17.08-4.33,2.41-8.74,4.67-13,7.11-10.7,6-21.62,11.73-31.78,18.7a243.93,243.93,0,0,0-25.77,19.86c-3.56,3.21-7.1,6.43-10.53,9.77-5.84,5.69-11.11,11.89-16.4,18.08a223.83,223.83,0,0,0-18.9,25.89A243.09,243.09,0,0,0,65.08,288.6c-3.48,8.6-6.46,17.36-9.25,26.19-2.11,6.69-3.49,13.57-5,20.43-1.55,7.18-2.19,14.49-3.57,21.68a6.26,6.26,0,0,0-.1,1c-.15,7.34-1.43,14.62-1.1,22,.2,4.47.2,9,0,13.44-.24,6.1.54,12.15,1.21,18.14a252.37,252.37,0,0,0,14.36,60.34,178.89,178.89,0,0,0,7.18,16.8c2.49,5,4.68,10.15,7.52,15,2,3.3,3.59,6.79,5.64,10a277.64,277.64,0,0,0,17.71,25.57,200.48,200.48,0,0,0,16.13,18.32c3.1,3,6.21,6,9.17,9.16a122.65,122.65,0,0,0,10.39,9.22,247.32,247.32,0,0,0,26.71,19.4,253.91,253.91,0,0,0,34.28,18.13q9.67,4.2,19.67,7.57a203,203,0,0,0,26.72,7.41c6.41,1.21,12.82,2.47,19.25,3.56a82.57,82.57,0,0,0,9,1c7.16.42,14.29,1.58,21.5,1.22,3.67-.19,7.36,0,11,0,7.51,0,14.93-1,22.39-1.71a220.79,220.79,0,0,0,25.44-4.19,200.81,200.81,0,0,0,23.49-6.53,292.36,292.36,0,0,0,27.56-11c5.23-2.42,10.19-5.31,15.36-7.83A52,52,0,0,1,431.19,598c3.35-.61,6.7-.33,10-.49a37.26,37.26,0,0,1,15.44,2.77,43.72,43.72,0,0,1,20.7,16.35,18.13,18.13,0,0,1,1.55,3,1.39,1.39,0,0,1-.52,1.71c-.92.62-1.94,1.11-2.91,1.65l-18.88,10.43c-9.24,5.08-18.36,10.38-27.75,15.17a284.66,284.66,0,0,1-46.67,18.61,276.34,276.34,0,0,1-33,8c-5.32.93-10.67,1.77-16.07,2.36-8.09.87-16.16,1.61-24.3,1.9-4.77.18-9.54.63-14.32.77-4.19.11-8.23-1-12.41-1a58.06,58.06,0,0,1-11.92-.72c-3.42-.63-7-.56-10.46-1.06-7.25-1-14.49-2.07-21.68-3.51a293.17,293.17,0,0,1-44.16-12.54c-7-2.6-14-5.41-20.82-8.52a288.57,288.57,0,0,1-47.36-27.12c-7.93-5.63-15.64-11.56-23-17.93A362.25,362.25,0,0,1,76.33,582a168.75,168.75,0,0,1-15-18c-3.69-5.2-7.67-10.21-11.15-15.56-5-7.64-9.67-15.41-14.1-23.38A293.11,293.11,0,0,1,11.39,464.4a260.6,260.6,0,0,1-6.12-26.52c-1-5.48-1.89-11-2.57-16.52-.5-4.1-.32-8.3-1.54-12.32a3.36,3.36,0,0,1-.08-1C1.45,400.07-.26,392.15,0,385.9Z"/><path d="M296.87,543.39h6.72a125.58,125.58,0,0,0,25.11-3,152.22,152.22,0,0,0,27.87-8.57A175,175,0,0,0,375.13,523a125.81,125.81,0,0,1,34.34-13.14,194.29,194.29,0,0,1,19.31-3.19,168.34,168.34,0,0,1,17.68-.69c4.64-.06,9.18,1,13.77,1.47a94.46,94.46,0,0,1,13.16,2.35,129.9,129.9,0,0,1,29.12,10.79,133.93,133.93,0,0,1,25,16.71A149.24,149.24,0,0,1,540,549.17a128.35,128.35,0,0,1,16.9,23.15c1,1.8.91,2.42-.84,3.54-3.75,2.43-7.56,4.78-11.33,7.18l-20.19,12.88c-.27.17-.56.3-.84.45-3.67,1.94-4,2.71-6.61-1.62a85.45,85.45,0,0,0-16.92-20.07A94.47,94.47,0,0,0,471.88,558a84.26,84.26,0,0,0-17.52-4.69,82.19,82.19,0,0,0-18.6-1.21,97,97,0,0,0-39.31,11.07c-3.09,1.67-6.12,3.47-9.27,5A219.83,219.83,0,0,1,350.51,582a238.84,238.84,0,0,1-25.71,5.34c-4.69.78-9.53.87-14.26,1.37-5.76.61-11.48.61-17.22.66-7,0-14-.91-20.94-1.68-4.76-.52-9.49-1.17-14.18-2.07a195.62,195.62,0,0,1-39-11.45,217.06,217.06,0,0,1-34.37-17.93A248.71,248.71,0,0,1,164,540.94c-7.49-6.06-14.07-13-20.66-20a168.08,168.08,0,0,1-11.74-14.49,159.18,159.18,0,0,1-10.94-16.29c-3.66-6.35-7.14-12.78-10.28-19.43a229,229,0,0,1-9.7-25,182.54,182.54,0,0,1-6.31-25.52c-1.12-6.55-1.8-13.2-2.38-19.91a200.62,200.62,0,0,1-.57-23c.1-5.39.94-10.77,1.52-16.15.29-2.69.93-5.35,1.07-8,.24-4.66,1.47-9.13,2.44-13.63A180.82,180.82,0,0,1,101.26,322a206.26,206.26,0,0,1,26.08-53.17,216.64,216.64,0,0,1,14.35-18.54c3.65-4.26,7.6-8.2,11.5-12.2,6.59-6.77,14-12.57,21.54-18.23a210.47,210.47,0,0,1,27.17-17c10-5.37,19.77-11.1,29.68-16.61,7.12-4,14.31-7.79,21.43-11.75,9.91-5.51,19.77-11.12,29.66-16.65,4.19-2.34,8.44-4.56,12.62-6.89,7.4-4.12,14.76-8.29,22.15-12.42,3.49-2,7-3.86,10.49-5.78,10.08-5.54,20.24-11,30.2-16.69a100,100,0,0,0,12.9-9.2A84.43,84.43,0,0,0,387.2,88.73a88,88,0,0,0,14.13-35.25c.71-4.07,1.4-8.17,1.76-12.29a56.62,56.62,0,0,0-.49-10c-.46-4.78-1.32-9.46-2.15-14.16-.53-3-1.75-5.8-2.55-8.72-.49-1.78-.3-2.13,1.58-2.75a20.58,20.58,0,0,1,2.77-.74c5.65-1,11.27-2.27,17-2.7C423.82,1.78,428.36.74,433,.84c2.2.05,4.41-.61,6.62-.77,3.22-.23,3.68,0,4.42,3,.92,3.7,1.69,7.45,2.35,11.22s1.21,7.86,1.75,11.8a23.42,23.42,0,0,1,.16,3.35c0,3.84.08,7.68,0,11.52a130.83,130.83,0,0,1-5,33.47,143,143,0,0,1-9.64,25,123.19,123.19,0,0,1-13.53,21.43,144.69,144.69,0,0,1-9.86,11.71,137.11,137.11,0,0,1-25.69,20.66c-4.31,2.75-8.82,5.17-13.28,7.67q-19.44,10.86-38.93,21.67c-8.38,4.64-16.89,9-25.17,13.84-9.12,5.3-18.59,9.94-27.56,15.5-4.21,2.6-8.71,4.71-13.05,7.11Q254,226,241.5,233c-6.43,3.56-12.82,7.18-19.31,10.64A173,173,0,0,0,180.7,275a164.59,164.59,0,0,0-20.77,27.43,151.62,151.62,0,0,0-13.05,27.18,169.84,169.84,0,0,0-5.9,20.16c-1.52,6.7-2.09,13.52-3.44,20.23a20.41,20.41,0,0,0-.18,3.83c0,6.4,0,12.8-.06,19.2-.06,5.29.83,10.46,1.63,15.67.56,3.62,1.26,7.2,2,10.79A129.68,129.68,0,0,0,147.31,441a163.5,163.5,0,0,0,17.48,33.5,157.75,157.75,0,0,0,67,55.57,162.08,162.08,0,0,0,36.52,11.2A121.62,121.62,0,0,0,296.87,543.39Z"/><path d="M172,388c.76-39.63,15.93-72.56,46-98.44a134.64,134.64,0,0,1,47.63-26.07,160,160,0,0,1,35.65-7.11,76.43,76.43,0,0,1,23.85,1.34c1.09.26,2.17.56,3.23.92,5.37,1.82,7.65,5.47,6.76,11.08-.7,4.42-1.59,8.81-2.35,13.22-.39,2.2-.7,4.42-1,6.64a20.24,20.24,0,0,1-19.29,17.51,111.39,111.39,0,0,0-24.15,3.51c-22.92,5.9-41.26,18.29-52.56,39.33-14,26.15-13.76,52.45,2.08,77.93,6.62,10.64,15.91,18.76,26.83,24.85,21.47,12,43.72,13.24,66.52,4.21,13.57-5.38,25.17-13.8,35.64-23.86,1.15-1.11,2.21-2.32,3.43-3.35a15.58,15.58,0,0,1,19.52-.59,30.32,30.32,0,0,1,3.25,2.84q8.46,8.16,16.9,16.33a24.27,24.27,0,0,1,2,2.06A8.86,8.86,0,0,1,413,460.57a25.68,25.68,0,0,1-2.69,4,106,106,0,0,1-20,19.86,161.26,161.26,0,0,1-64.29,30.94c-26.72,6.06-52.79,3.89-77.92-7.12-20.24-8.87-36.6-22.67-49.56-40.5a139.16,139.16,0,0,1-24-55.45A119.07,119.07,0,0,1,172,388Z"/><path d="M470,235.39h9.6c3.2,0,6.38-.18,9.53.71a12.9,12.9,0,0,0,3.34.16c6.23.05,12.36,1.11,18.54,1.74,7.14.72,14.18,2,21.24,3.26,6.27,1.08,12.48,2.58,18.65,4.16,9.75,2.51,19.3,5.63,28.82,8.91,7.71,2.67,15.19,5.87,22.66,9.09,5,2.15,9.88,4.49,14.73,6.91,8.43,4.21,16.56,9,24.61,13.88a411.92,411.92,0,0,1,35.52,24.39c4.94,3.76,9.49,8,14.36,11.91a120.68,120.68,0,0,1,9.5,8.73A232.1,232.1,0,0,1,719.23,349q7.68,9.5,14.71,19.46c1.5,2.13,1.51,3.69.33,6.06-6.4,12.86-12.53,25.86-18.77,38.81a21.33,21.33,0,0,1-1.35,2.54.91.91,0,0,1-1.24.36,1,1,0,0,1-.34-.3,32.45,32.45,0,0,1-2-2.74,237.69,237.69,0,0,0-19.2-25.66,292.63,292.63,0,0,0-21.18-22.8c-4.17-3.93-8.69-7.49-13-11.33-10.14-9.08-21.33-16.74-32.68-24.17a185.93,185.93,0,0,0-16.5-9.74c-3.54-1.84-7-3.87-10.56-5.65a313.26,313.26,0,0,0-33-14.08,268.89,268.89,0,0,0-34.88-10.19c-6.21-1.36-12.4-2.95-18.79-3.44a39.39,39.39,0,0,1-7.06-1.16c-1.9-.5-3.82-.37-5.69-.7-6.46-1.16-13.07-.44-19.51-1.69a17.15,17.15,0,0,0-3.36-.11c-4.15,0-8.31-.05-12.47,0-3.35,0-6.7-.2-10,.69a22.29,22.29,0,0,1-3.83.18c-5.09.35-10.21.46-15.25,1.17-7.72,1.09-15.43,2.36-23,4-5.75,1.26-10.93-.09-15.65-2.79-9-5.12-13-13.36-11.68-23.4,1.15-8.75,6.2-15.27,14.68-18.64,4.93-2,10.2-2.51,15.36-3.46,6.09-1.12,12.25-1.91,18.38-2.85h0c5.29.22,10.5-.83,15.74-1.25C455,235.55,462.48,235.41,470,235.39Z"/><path d="M630.3,61c-.64,5-1.3,10.1-1.9,15.16-.37,3-.64,6-1.1,9-1.14,7.41-2.56,14.76-4.17,22.07a329.2,329.2,0,0,1-11.77,39.92c-1.93,5.4-4.33,10.64-6.41,16-2.38,6.14-3.06,5.62,3.42,8q16.46,5.94,32.52,12.85c10.28,4.42,20.45,9.09,30.33,14.34,7.47,4,14.74,8.31,22.17,12.37a365.28,365.28,0,0,1,32,20.18c7.1,4.87,14,10.08,20.92,15.18,2.4,1.77,4.26,3.91,3.77,7.23,1.24,4,.49,8.28,1.68,12.28l.07.49c-.12,5.13.94,10.17,1,15.27.13,8.32,0,16.64,0,25a19.51,19.51,0,0,1-.26,3.33.73.73,0,0,1-.85.62.58.58,0,0,1-.25-.09,10.05,10.05,0,0,1-1.89-1.42c-6.77-6.31-13.79-12.32-20.93-18.23A424.1,424.1,0,0,0,691.29,263c-8.26-5.45-16.6-10.8-25.32-15.51-6.87-3.71-13.64-7.65-20.64-11.12-9-4.48-18.2-8.57-27.44-12.55-13.66-5.9-27.65-10.85-41.8-15.37-7.13-2.28-14.4-4.17-21.61-6.23-5.67-1.62-11.36-3.21-17-4.86-1.24-.36-1.49-1-.86-2.15,2.8-5,5.61-10,8.49-15a340.05,340.05,0,0,0,16.48-31.92q5.74-12.93,10.18-26.35a229.83,229.83,0,0,0,8-30c1.36-7,2.53-13.93,3.53-20.87,1.79-12.4,1.79-24.82,1.8-37.27v-1c.07-3.71.61-4.11,3.81-2.54,7.61,3.74,15,7.87,22.24,12.27,4.91,3,9.66,6.24,14.48,9.37.67.44,1.34.87,2,1.33a5.28,5.28,0,0,1,2.52,5.34,15.89,15.89,0,0,0,0,2.39Z"/><path d="M441.65,373c-4.9,0-8.26-.13-11.61,0a19.66,19.66,0,0,1-12.51-4c-6.69-4.72-10.34-11.29-10.28-19.52a22.29,22.29,0,0,1,6.18-15.16,23.67,23.67,0,0,1,14.93-7.69c8.3-1.15,16.58-.41,24.87-.62,4.55,1.2,9.22.56,13.83.92,4.43.35,8.87.8,13.27,1.48,3,.46,6.11,0,9,1.21,10.66,1,21,3.53,31.44,5.87a285.28,285.28,0,0,1,28,8.09,328.78,328.78,0,0,1,52.48,23.29,309.75,309.75,0,0,1,41.17,27c7.57,5.84,14.81,12.09,21.93,18.51,8.08,7.29,15.6,15.11,23.33,22.75a77.24,77.24,0,0,1,5.63,6.51c1.28,1.57,1.33,2.83.14,4.32-3.08,3.87-6.22,7.68-9.36,11.5-1.72,2.09-3.64,4-5.21,6.24a83.68,83.68,0,0,1-7.65,8.56c-1.84,2-3.52,4.12-5.36,6.11-1,1.13-1.83,1.1-2.87.08-.79-.78-1.51-1.64-2.23-2.5-.4-.49-.66-1.1-1.09-1.56-5.36-5.71-10.44-11.71-16.17-17-8.18-7.57-16.33-15.19-25.26-22-6.87-5.2-13.74-10.38-21-15-6.31-4.06-12.66-8-19.26-11.62-5.2-2.82-10.4-5.63-15.74-8.15A292.71,292.71,0,0,0,522,385.26a229.51,229.51,0,0,0-31.57-7.58c-4.71-.72-9.37-1.84-14.09-2.48a104.54,104.54,0,0,0-10.45-1.1C457.31,373.82,448.76,372.24,441.65,373Z"/><path d="M458.23,418c4-.38,8,.66,11.83,1.46a329.77,329.77,0,0,1,44.23,12.09,297.45,297.45,0,0,1,28.79,11.76q8.82,4.26,17.52,8.76a284.57,284.57,0,0,1,39.57,25.11c5.49,4.11,11,8.22,16.22,12.64a214.71,214.71,0,0,1,17.89,16.62c1.15,1.21,1.2,1.63,0,2.76-3.37,3.16-6.47,6.59-10.2,9.42-3.42,2.59-6.45,5.69-9.72,8.49-4.36,3.74-8.78,7.4-13.16,11.1a1.74,1.74,0,0,1-2.46,0l-.09-.1c-3.09-2.76-6.2-5.51-9.26-8.3-5.31-4.85-11-9.18-16.74-13.52A245.49,245.49,0,0,0,544,497.21a285.67,285.67,0,0,0-26.44-13.49c-9-3.85-18-7.54-27.22-10.53a285.34,285.34,0,0,0-31.44-8.09c-1.56-.3-3.12-.64-4.68-1-9.83-2-16.57-7.69-18.79-17.54-3-13.37,3.86-23.9,15.71-28C453.46,417.85,455.85,418.15,458.23,418Z"/><path d="M415.24,187.33c2.54-3.07,5.55-4.59,8.07-6.68,3.32-2.74,6.81-5.27,9.89-8.31,2.26-2.24,4.87-4.14,7.11-6.4a184.09,184.09,0,0,0,36.51-52.37,215.1,215.1,0,0,0,9.29-24.64c2.58-7.9,4-16.06,5.56-24.21,2.64-13.95,2.07-28,1.68-42a94.07,94.07,0,0,0-2.31-18,12,12,0,0,1-.29-1.88,1.45,1.45,0,0,1,1.19-1.67.55.55,0,0,1,.18,0,6.12,6.12,0,0,1,1.91,0C501.41,2.4,508.81,3.52,516.14,5c6.55,1.34,13,3.06,19.53,4.67,2.48.61,2.65,1,2.93,3.61,1.27,11.79,1.15,23.62.85,35.43-.11,4.76-.92,9.5-1.47,14.24-.32,2.69-.82,5.38-1.06,8a107,107,0,0,1-2.41,13.64,229,229,0,0,1-13.4,41.88,240.82,240.82,0,0,1-19.17,35.88,188.36,188.36,0,0,1-12.49,17c-2.24,2.71-4.46,5.43-6.9,8a4.63,4.63,0,0,1-5.18,1.45,5.41,5.41,0,0,0-1.86-.42c-5.61.24-11.12-1-16.71-1H420.4Z"/><path d="M611.67,820.42c1.71-.77,2.21-2,2.93-3q20.89-29,41.75-58c.84-1.16,1.75-2.27,2.65-3.38a1.16,1.16,0,0,1,1.3-.29,1,1,0,0,1,.73,1.1c.07,1.12.07,2.24.07,3.36v95c-.08,1.81-.46,2.23-2.41,2.25q-6.63.09-13.29,0c-1.91,0-2.27-.42-2.3-2.36-.06-2.94,0-5.89,0-8.83V809.19c0-1.1-.13-2.21-.2-3.32,0-.41-.24-.56-.67-.48h-.43c-.7.86-1.41,1.73-2.06,2.64L615,843.4c-.27.4-.5.82-.78,1.21-2.54,3.63-2.79,3.69-5.32.2-8.17-11.24-16.22-22.58-24.44-33.79-1.42-1.94-2.11-4.64-4.87-5.43-1.06,2.27-.46,4.67-.47,7-.07,13.07,0,26.15,0,39.23v2.87c-.09,2.42-.32,2.71-2.86,2.73H564.9a1.63,1.63,0,0,1-1.8-1.43,1.82,1.82,0,0,1,0-.33v-96c0-1.11.1-2.23.21-3.34a.9.9,0,0,1,1.53-.54,18.39,18.39,0,0,1,1.56,1.85l39.82,55.26C607.93,815.35,609.74,817.82,611.67,820.42Z"/><path d="M88.91,777a43.11,43.11,0,0,0-20.69-3.94c-15.11.7-28.81,11.66-32.27,26.36-5.5,23.32,12.71,43,33.14,43a48.38,48.38,0,0,0,21.21-5.18c1.49-.72,2-.57,2.64.76q2.28,4.77,4.42,9.57c.65,1.43.5,1.91-.9,2.68a39.12,39.12,0,0,1-5.13,2.59C80.33,857.1,69,858.5,57.44,856c-16.39-3.51-28.11-13-33.7-28.88-6.75-19.11-4-37,9.88-52.26,10-11,23-15.75,37.83-15.42a50.72,50.72,0,0,1,17.38,3.08c.89.34,1.8.64,2.66,1.05,4.28,2,4.27,2,1.89,6.21C92.19,771.89,91,774,89.81,776A7.14,7.14,0,0,1,88.91,777Z"/><path d="M324.21,855.62c-.52-3.69-.61-49.11-.13-54.06,1.45-.91,3.08-.5,4.65-.5,5.74,0,5-.56,5.36,5,.1,1.59.2,3.18.38,4.76a1.68,1.68,0,0,0,.67,1.1c.46.28.88-.1,1.15-.5.63-.92,1.24-1.85,1.85-2.78,6.79-10.09,18.17-10.4,25.41-8a15.47,15.47,0,0,1,9.37,8.32c.45,1,.92,2,1.34,2.91,1.17.25,1.51-.53,2-1.14.74-1,1.42-2.12,2.21-3.11a21.78,21.78,0,0,1,24.89-6.89,15.38,15.38,0,0,1,10.29,12.13,26.07,26.07,0,0,1,.46,4.74V852.5c0,.92-.12,1.84-.19,2.9-3.26.78-6.49.32-9.66.32-.76,0-1.06-.6-1.09-1.24-.06-1.24-.06-2.48-.06-3.71V823.45a13.21,13.21,0,0,0-2.26-8.15,8.59,8.59,0,0,0-4.45-3.33,15.43,15.43,0,0,0-18.63,7.36,22.84,22.84,0,0,0-2.66,11v24.46c0,.89-.37,1.58-1.34,1.6h-9c-1.18,0-1.66-.73-1.67-1.84s0-2.24,0-3.36V822.47c0-6.19-3.86-11.73-12.36-11.25A16.16,16.16,0,0,0,336,822.88a24.06,24.06,0,0,0-.87,7.12v24.39a1.37,1.37,0,0,1-1.23,1.49h-.25C330.49,855.84,327.3,856.22,324.21,855.62Z"/><path d="M727.72,177.17a5.69,5.69,0,0,1-4.05-1.19c-10.48-6.75-21.48-12.6-32.51-18.36-8.61-4.49-17.54-8.37-26.33-12.52-.58-.27-1.17-.51-1.74-.81-2-1-2.79-1.2-1.81-4.44a284,284,0,0,0,8-32.95c.72-4.07,1.36-8.16,2.06-12.23.25-1.44,1.3-1.83,2.35-.88a20.86,20.86,0,0,1,1.7,1.69c4.53,5.14,9.19,10.14,13.3,15.67,4,5.37,8.07,10.67,12,16.11,4.39,6.11,8.23,12.54,12.08,19,5,8.38,9.18,17.19,13.47,25.94.77,1.57,1.73,3.08,1.58,5Z"/><path d="M688.08,837a12.87,12.87,0,0,0,8.8,7.35,18.76,18.76,0,0,0,16-2.85c2.16-1.48,2.22-1.44,4,.25s3.73,3.51,5.55,5.3c2.45,2.41,2.4,3-.49,5.11a31.73,31.73,0,0,1-10.31,5c-10,2.84-19.36,1.56-27.8-4.62-18.14-13.3-15.73-40.66,4.43-51,13.34-6.85,30.89-3.36,39.08,13.76,2.71,5.68,2.15,5-2.87,7q-17.61,7-35.21,13.93A8.24,8.24,0,0,0,688.08,837Zm-2.68-11.53c-.2,1.26.45,1.87,1.61,1.39q11.54-4.68,23-9.46a3.78,3.78,0,0,0,.83-.47,1,1,0,0,0,.39-1.36,1.18,1.18,0,0,0-.17-.22,11.2,11.2,0,0,0-1.85-1.51c-9.65-6-22.06,1.06-23.81,11.63Z"/><path d="M253.45,828.57c-.51-15.15,12.26-29.11,29.27-29.22,14.95-.09,29,11.08,29.19,28.69a28.7,28.7,0,0,1-28.06,29.33h-1C264.19,857.42,253,843,253.45,828.57ZM265.1,828a17.59,17.59,0,0,0,17,18.18h.18a17.8,17.8,0,1,0,.85-35.58H283A17.65,17.65,0,0,0,265.1,828v0Z"/><path d="M540.12,841.51l8,7.7a4.89,4.89,0,0,1-.6,1.07c-12.16,10.45-31.39,9.3-42.16-2.51a28.77,28.77,0,0,1,1.89-40.64A29.5,29.5,0,0,1,513,803c15.28-8.46,33.36-1.67,39.3,14.77.65,1.8.57,2-1.35,2.74l-34.77,13.79-4,1.6a1,1,0,0,0-.69,1.24.91.91,0,0,0,.17.34,13.06,13.06,0,0,0,4.35,5c6.69,4.83,13.66,4.71,20.79,1.07C537.77,843.09,538.68,842.42,540.12,841.51ZM538.35,817c-1.63-3.12-2.8-4.21-5.71-5.3-11.34-4.25-22.61,4.3-23.57,15.35-.13,1.54.52,2,2,1.43q10.84-4.41,21.67-8.9C534.64,818.79,536.7,818.33,538.35,817Z"/><path d="M146.61,801a48.49,48.49,0,0,1,10.36-.22c.76,0,1,.68,1.08,1.35s0,1.62,0,2.43v51.06a1.44,1.44,0,0,1-1.29,1.57h-.12a12.45,12.45,0,0,1-1.93.06c-1.9-.1-4.13.71-5.63-.43s-.72-3.57-1-5.41-.42-3.82-.66-5.73c-.06-.42-.21-1-.51-1.18-.8-.5-1.08.34-1.4.81a37.53,37.53,0,0,1-5.18,6.28c-6.47,6-17.67,7.68-25.55,3.61a15.22,15.22,0,0,1-8.32-11.12,24.66,24.66,0,0,1-.41-4.77V802.6a1.36,1.36,0,0,1,1.32-1.4h.18c3.08,0,6.17-.39,9.5.37v33c-.34,8.15,5.81,12.12,12.83,11.67a17.19,17.19,0,0,0,16.43-17.1c.22-7.75.06-15.51.09-23.24C146.49,804.32,146.57,802.73,146.61,801Z"/><path d="M481.5,813.24c-1.86-.7-3.74-1.53-5.7-2.12a10.93,10.93,0,0,0-6.6,0c-3.54,1.14-4.16,4.68-2.44,7.34a7.42,7.42,0,0,0,2.86,2.5c2.25,1.18,4.58,2.24,6.85,3.4a64.88,64.88,0,0,1,6.32,3.38c5.13,3.36,7.48,8.13,6.79,14.3s-3.86,10.8-9.56,13.34c-5.47,2.45-11.2,2.24-16.9.81a20,20,0,0,1-9.29-4.67c-.8-.76-1.13-1.5-.32-2.46,1.85-2.18,3.68-4.39,5.31-6.34,1.46-.57,2.15.31,2.95.75a26.17,26.17,0,0,0,6.73,2.42,9.12,9.12,0,0,0,7.33-1.37,4.75,4.75,0,0,0,.35-8.05,27.3,27.3,0,0,0-4.55-2.6c-1.58-.78-3.24-1.36-4.85-2.06-1.31-.58-2.64-1.15-3.88-1.85-6.81-3.86-9.82-9.91-8.19-18.19a14,14,0,0,1,7.58-9.91c7.1-3.84,17.74-2.61,23.9,2.65.84.72,1.2,1.52.51,2.48-1.12,1.56-2.31,3.06-3.46,4.59C482.77,812.21,482.41,813,481.5,813.24Z"/><path d="M187,857.22c-5.72-.15-11.08-1.4-15.68-5-2-1.58-2-1.92-.53-3.81.49-.62,1-1.27,1.5-1.86,1.15-1.32,2.11-3,3.57-3.79,1.71-.87,3,1.32,4.71,1.72s3.33,1.13,5,1.49a8.74,8.74,0,0,0,6.86-1.39c3.11-2,3.37-5.74.47-8a23.9,23.9,0,0,0-4.54-2.64c-2-1-4.14-1.67-6.18-2.58a20.41,20.41,0,0,1-8.34-6.24c-5.7-7.61-3.11-19.32,5.46-23.37,8.29-3.91,16.17-2.47,23.47,2.78,1.21.87,1.26,1.54.35,2.82-1,1.44-2.14,2.79-3.15,4.23-1.33,1.88-1.77,2-3.9.95a19.83,19.83,0,0,0-5-1.65,9.32,9.32,0,0,0-5.64.51,4.58,4.58,0,0,0-2.11,7.1,10.53,10.53,0,0,0,4.06,3.28c2,1.05,4.07,1.86,6.07,2.85a56.51,56.51,0,0,1,5.89,3.17c5.12,3.35,7.59,8.08,6.9,14.26a15.89,15.89,0,0,1-9.5,13.41A21.85,21.85,0,0,1,187,857.22Z"/><path d="M234.09,856.39a56.12,56.12,0,0,1-9.7.18,1.21,1.21,0,0,1-1.2-1.22c-.08-1.28-.09-2.56-.09-3.84v-35c0-1.3,0-2.58-.08-3.88a1.47,1.47,0,0,0-1.47-1.46h-.13c-2.26-.07-4.54-.07-6.8-.1a1.39,1.39,0,0,1-1.52-1.25.88.88,0,0,1,0-.23v-2.49c.09-6.56-.89-5.58,5.54-5.68,1.12,0,2.26-.09,3.38-.17a1,1,0,0,0,.92-.93,35.25,35.25,0,0,0,.13-4.6L223,784c.15-2.32,0-3.93.18-5.7a1.29,1.29,0,0,1,1.26-1.21,25.41,25.41,0,0,1,2.89-.13c8.53.13,7.1-1.17,7.2,7,.07,5.58,0,11.16,0,16.47,1.11,1.26,2.29,1,3.36,1h8.68c1.54,0,1.83.34,1.86,2,0,2.09,0,4.18,0,6.26a1.58,1.58,0,0,1-1.39,1.74,2.17,2.17,0,0,1-.36,0c-3.56,0-7.13,0-10.67.06-1.45,0-1.85.5-1.94,2.06,0,1.11,0,2.24,0,3.36v39.52Z"/><path d="M441.1,828.57v22.51c-.17,1.11-.17,2.23-.23,3.35a1.42,1.42,0,0,1-1.34,1.51,1.88,1.88,0,0,0-.12.45h-.48s-9.15,1.55-9.25-9.16c-.12-14.05,0-28.1,0-42.15,0-4.35.07-4.22,4.23-4.19,1.92,0,3.83,0,5.75.09.65,0,1.19.5.44,1.14v.07a8,8,0,0,1,1,3.35Z"/><path d="M436.19,772.41a7.52,7.52,0,0,1,6.48,8.13,7.18,7.18,0,0,1-7.85,6.44l-.22,0a7.3,7.3,0,0,1-6.3-7.76A7.55,7.55,0,0,1,436.19,772.41Z"/><path d="M727.77,177.12l.38.46c-.1,0-.23,0-.28-.07a1.75,1.75,0,0,1-.15-.34Z"/></g></g></g></g></svg>