<svg xmlns="http://www.w3.org/2000/svg" viewBox="0 0 337.73 288.27"><defs><style>.cls-1{fill:#7e9af4;}.cls-2{fill:#ff6c3c;}</style></defs><g id="Layer_2" data-name="Layer 2"><g id="ICONS"><g id="Blob1"><path class="cls-1" d="M2.46,201.36c-18.44-99.38,72-157,103-174s106-54,154,4,33,140-32,212S20.83,300.36,2.46,201.36Z"/><path class="cls-1" d="M309.46,179.36c19.37,5.9,26,34,8,56s-36,27-47,24-22-17-12-42S286.46,172.36,309.46,179.36Z"/><path class="cls-2" d="M299.46,126.36c12.42-6.21,30,3,34,9s8,17-2,25-33.13,12.56-39-8C288.46,138.36,293.46,129.36,299.46,126.36Z"/></g></g></g></svg>