<svg xmlns="http://www.w3.org/2000/svg" xmlns:xlink="http://www.w3.org/1999/xlink" viewBox="0 0 1282 498.01"><defs><style>.cls-1,.cls-3{fill:none;stroke-miterlimit:10;stroke-width:5px;}.cls-1{stroke:#ff6c3c;}.cls-2{fill:url(#radial-gradient);}.cls-3{stroke:#7e9af4;}</style><radialGradient id="radial-gradient" cx="640.5" cy="292" fx="20.83149628391857" fy="619.0411223194095" r="703.98" gradientTransform="translate(-1.5 0.1)" gradientUnits="userSpaceOnUse"><stop offset="0.26" stop-color="#7e9af4"/><stop offset="0.69" stop-color="#ff96aa"/><stop offset="0.93" stop-color="#ff6c3c"/></radialGradient></defs><g id="Layer_2" data-name="Layer 2"><g id="WAVES"><g id="footer"><path class="cls-1" d="M1.5,132.51c123-1,119-88,220-87,99,1,100,88.18,223,87,104-1,118-88,212-87,90,1,128,88,241,87,108-1,99-85,192-85,96,0,81,84,191,85"/><path class="cls-2" d="M1281,173c-110.34-1-91.3-85.5-187.6-85.5-93.31,0-84.26,83.94-192.6,84.89-113.35,1-151.45-85.93-241.75-86.89-94.29-1-108.34,85.89-212.66,86.89C323,173.58,322,86.51,222.69,85.51,121.38,84.49,125.39,171.4,2,172.4L0,498H1282Z"/><path class="cls-3" d="M1.5,89.51c123-1,119-88,220-87,99,1,100,88.18,223,87,104-1,118-88,212-87,90,1,128,88,241,87,108-1,99-85,192-85,100,0,85,84,191,85"/></g></g></g></svg>