<svg xmlns="http://www.w3.org/2000/svg" viewBox="0 0 246 258.94"><defs><style>.cls-1{fill:#ff6c3c;}.cls-2{fill:#7e9af4;}</style></defs><g id="Layer_2" data-name="Layer 2"><g id="ICONS"><g id="USP_icon_with_text_bg" data-name="USP icon with text bg"><path class="cls-1" d="M122.44,25.85a103.54,103.54,0,0,1,94.84,62.23H223a108.61,108.61,0,0,0-201,0H27.6A103.54,103.54,0,0,1,122.44,25.85Zm0,206.75a103.49,103.49,0,0,1-93.6-59.52H23.08a108.6,108.6,0,0,0,198.72,0H216A103.49,103.49,0,0,1,122.44,232.6Z"/><path class="cls-2" d="M122.69,5.44c57.15,0,101.84,33,117.75,82.64H246a124,124,0,0,0-30.67-51.24C191.58,13.08,158.68,0,122.69,0A129.71,129.71,0,0,0,0,88.08H5.76A124.26,124.26,0,0,1,122.69,5.44Zm0,248.06A124.23,124.23,0,0,1,6.58,173.08H.78a129.48,129.48,0,0,0,243.82,0h-5.8A124.23,124.23,0,0,1,122.69,253.5Z"/></g></g></g></svg>