<svg xmlns="http://www.w3.org/2000/svg" viewBox="0 0 1279.04 135.02"><defs><style>.cls-1,.cls-2{fill:none;stroke-miterlimit:10;stroke-width:5px;}.cls-1{stroke:#ff6c3c;}.cls-2{stroke:#7e9af4;}</style></defs><g id="Layer_2" data-name="Layer 2"><g id="WAVES"><g id="header"><path class="cls-1" d="M0,132.51c123-1,119-88,220-87,99,1,100,88.18,223,87,104-1,118-88,212-87,90,1,128,88,241,87,108-1,99-85,192-85,96,0,81,84,191,85"/><path class="cls-2" d="M0,89.51c123-1,119-88,220-87,99,1,100,88.18,223,87,104-1,118-88,212-87,90,1,128,88,241,87,108-1,99-85,192-85,96,0,81,84,191,85"/></g></g></g></svg>